<?xml version="1.0" standalone="no"?>
<!DOCTYPE svg PUBLIC "-//W3C//DTD SVG 20010904//EN"
 "http://www.w3.org/TR/2001/REC-SVG-20010904/DTD/svg10.dtd">
<svg version="1.0" xmlns="http://www.w3.org/2000/svg"
 width="300.000000pt" height="299.000000pt" viewBox="0 0 300.000000 299.000000"
 preserveAspectRatio="xMidYMid meet">
<metadata>
Created by potrace 1.10, written by Peter Selinger 2001-2011
</metadata>
<g transform="translate(0.000000,299.000000) scale(0.100000,-0.100000)"
fill="#000000" stroke="none">
<path d="M1024 2966 c-3 -13 -5 -30 -4 -37 2 -8 2 -28 1 -46 -1 -32 -1 -32
-48 -29 -27 2 -64 12 -83 23 -19 11 -53 22 -75 24 -78 8 -218 4 -222 -6 -2 -6
39 -10 109 -10 164 0 275 -38 409 -141 151 -115 259 -305 259 -454 0 -39 2
-42 23 -37 12 2 66 14 121 27 54 12 102 18 106 13 7 -7 110 -467 110 -490 0
-4 5 -2 11 4 6 6 25 7 52 2 23 -4 77 -11 120 -14 l77 -7 0 -36 c0 -48 -18
-203 -24 -210 -10 -9 -241 20 -254 32 -10 10 -31 8 -102 -8 -49 -11 -92 -17
-95 -14 -3 3 -15 57 -27 119 -12 63 -23 116 -25 118 -2 3 -107 -18 -170 -35
-9 -2 -9 -14 1 -51 23 -81 39 -184 30 -193 -5 -4 -43 -17 -84 -30 -100 -29
-102 -30 -51 -27 68 3 61 -19 -9 -30 -60 -10 -89 -1 -59 18 8 5 9 9 3 9 -6 0
-17 -7 -24 -15 -7 -8 -19 -15 -26 -15 -8 0 -14 -4 -14 -9 0 -5 64 -10 142 -10
77 -1 145 -4 150 -7 4 -3 8 -24 8 -47 0 -32 -17 -76 -72 -187 -40 -80 -74
-148 -76 -152 -4 -9 53 -10 84 -2 12 3 27 17 33 30 6 13 17 24 26 24 12 0 15
13 15 63 0 35 3 112 7 170 l6 107 79 0 78 0 0 -196 0 -195 85 3 c101 4 98 8
93 -117 l-3 -80 -70 2 c-38 2 -98 0 -132 -3 -54 -5 -62 -8 -67 -29 -10 -41
-63 -87 -94 -83 l-27 3 1 -170 c0 -93 3 -182 7 -197 10 -38 43 -46 73 -17 24
22 24 25 24 199 0 123 4 180 12 188 16 16 160 16 176 0 8 -8 12 -50 12 -124 0
-81 3 -114 13 -117 10 -3 10 -11 0 -39 -7 -19 -13 -47 -13 -63 0 -27 1 -27 18
-12 10 10 31 17 47 17 l29 0 -29 30 c-26 28 -30 39 -33 106 -6 103 22 156 103
197 77 38 218 28 276 -20 43 -37 71 -96 67 -146 -3 -41 -4 -42 -41 -42 -45 0
-46 -5 -7 -28 52 -31 63 -67 58 -186 -2 -58 -2 -97 0 -86 2 11 8 24 13 29 5 6
9 115 9 242 0 172 3 236 13 246 6 8 23 33 35 57 23 42 23 43 5 64 -11 12 -39
56 -64 97 l-44 75 -5 -95 -5 -95 -48 -3 c-39 -3 -48 -6 -43 -18 3 -9 6 -18 6
-20 0 -6 51 6 78 18 12 6 22 17 22 23 0 7 7 18 15 25 12 10 13 16 3 29 -12 15
-11 15 7 1 35 -26 48 -41 41 -47 -3 -3 -1 -12 4 -18 8 -9 4 -24 -12 -51 -12
-22 -26 -42 -31 -45 -5 -4 -5 -14 1 -25 5 -11 6 -28 1 -39 -6 -17 -8 -17 -8
-2 -1 9 -5 17 -11 17 -5 0 -7 6 -4 14 5 14 -11 30 -31 31 -23 2 -86 37 -92 51
-4 11 -8 12 -20 3 -7 -7 -51 -13 -98 -14 -61 -1 -90 -6 -102 -17 -10 -9 -36
-21 -58 -27 -34 -9 -42 -8 -52 6 -7 9 -13 22 -13 29 0 7 -8 13 -17 13 -49 2
-63 6 -63 17 0 18 32 27 42 12 4 -8 8 -8 8 -2 0 6 22 12 53 13 28 1 53 5 55
10 1 4 28 2 60 -5 31 -7 59 -10 62 -5 3 4 15 7 28 6 12 -1 22 2 22 7 0 4 -29
8 -64 8 -42 0 -67 5 -75 14 -8 9 -11 95 -9 292 l3 279 78 3 77 3 1 -173 c1
-95 1 -228 1 -295 -1 -110 7 -147 21 -110 3 6 6 1 6 -12 1 -13 3 -22 7 -19 3
3 5 141 4 307 l-1 301 69 0 68 0 54 -95 c30 -52 57 -95 60 -95 3 0 5 42 5 93
l0 92 73 3 72 3 1 -213 c1 -117 1 -245 1 -284 1 -82 -6 -98 -36 -90 -35 9 -67
-4 -61 -24 3 -10 1 -29 -4 -44 l-11 -26 179 0 c154 0 180 -2 185 -16 9 -24 7
-147 -3 -163 -7 -10 -36 -13 -125 -12 -73 1 -116 -2 -116 -8 0 -6 43 -11 107
-13 l106 -3 -2 -80 c-1 -43 -5 -83 -7 -87 -3 -4 -50 -8 -105 -8 -61 0 -99 -4
-99 -10 0 -7 46 -10 130 -9 116 1 128 3 121 18 -5 9 -9 37 -9 63 0 26 -3 60
-7 77 -5 24 -2 32 14 41 13 6 21 21 21 37 0 21 2 23 15 13 12 -10 16 -9 21 5
5 13 9 14 15 4 16 -27 19 -1 4 35 -13 31 -14 44 -4 73 8 25 8 38 0 46 -8 8
-11 7 -11 -3 -1 -11 -3 -10 -11 3 -6 9 -14 15 -20 12 -5 -4 -9 8 -9 24 0 20 5
31 14 31 8 0 21 3 30 6 11 4 16 1 16 -10 0 -20 7 -20 27 -1 21 22 37 14 41
-20 2 -16 11 -38 19 -50 12 -15 14 -16 10 -2 -4 11 -1 17 8 17 20 0 19 10 -2
27 -10 8 -12 11 -4 7 11 -5 13 -3 8 10 -4 11 1 29 12 45 17 24 19 36 12 87 -5
32 -7 62 -4 66 16 29 19 261 2 266 -5 2 -7 18 -3 37 4 24 1 36 -11 46 -37 32
-64 63 -59 71 3 4 -3 11 -13 14 -10 3 -26 10 -35 15 -10 5 -26 9 -36 9 -10 0
-23 5 -29 11 -8 8 -28 9 -72 1 -70 -13 -133 -52 -155 -97 -14 -28 -16 -28 -17
-7 -1 12 -2 28 -3 35 -1 6 -15 24 -33 38 -28 23 -39 26 -85 21 -67 -6 -88 -17
-88 -46 0 -13 -6 -29 -14 -35 -11 -10 -16 -8 -21 8 -3 12 -11 21 -16 21 -5 0
-9 7 -9 15 0 8 -10 20 -22 26 -28 15 -144 15 -162 0 -10 -8 -16 -9 -21 -1 -9
15 -147 13 -169 -3 -16 -12 -18 -31 -16 -193 l1 -181 -63 1 c-35 1 -69 5 -75
9 -9 6 -12 48 -9 165 2 129 0 160 -12 175 -8 9 -21 17 -29 17 -7 0 -24 7 -38
16 -16 11 -34 13 -57 9 -39 -9 -96 -7 -155 4 -4 0 10 13 30 29 58 43 67 61 52
104 -8 24 -9 40 -2 47 11 11 0 34 -14 26 -11 -8 -27 32 -24 63 2 30 21 42 66
42 41 0 58 -14 59 -47 0 -5 5 -1 10 7 7 11 8 5 3 -19 -4 -25 -3 -32 5 -27 11
7 18 -43 13 -95 -2 -19 36 -39 69 -35 14 2 30 -1 36 -6 8 -5 31 -1 63 11 43
16 52 17 62 5 6 -8 24 -14 39 -14 16 0 57 -7 91 -16 36 -9 65 -12 66 -7 2 5
17 7 34 5 42 -6 64 18 80 89 14 62 22 71 38 40 10 -17 31 -22 169 -36 18 -2
39 -8 47 -15 14 -12 105 -10 105 3 0 4 5 7 10 7 6 0 10 -7 10 -16 0 -11 6 -14
21 -9 12 4 19 3 16 -2 -3 -4 12 -8 34 -7 22 0 42 -3 45 -8 7 -11 55 2 75 21
22 21 41 84 33 106 -4 10 -3 16 2 13 5 -4 9 15 9 42 0 27 3 46 7 44 5 -3 8 2
8 11 0 9 5 13 11 9 8 -4 9 1 4 17 -9 28 -3 24 15 -10 8 -15 8 -21 1 -17 -17
11 -13 -11 5 -33 19 -21 27 -78 13 -87 -16 -10 -10 -98 9 -122 28 -37 134 -54
186 -31 19 9 26 22 31 60 4 27 11 49 16 49 5 0 9 15 9 33 0 29 19 76 20 52 1
-5 6 1 11 15 8 20 12 22 19 10 7 -11 10 -2 10 30 l0 45 -29 -35 c-16 -19 -38
-45 -49 -58 -14 -16 -22 -44 -27 -91 -4 -37 -10 -73 -14 -79 -6 -10 -25 -10
-82 -2 -40 6 -77 14 -81 18 -4 4 -2 42 4 85 l11 78 -41 92 c-23 51 -46 104
-51 120 -15 39 -31 33 -31 -10 0 -21 -10 -107 -22 -191 l-22 -154 -66 7 c-103
10 -102 9 -96 63 l6 47 -21 -48 c-16 -34 -26 -46 -38 -43 -9 3 -37 8 -63 12
-40 5 -48 10 -48 28 0 11 -4 32 -7 46 -7 22 -8 21 -13 -15 l-5 -40 -70 3 c-38
2 -74 7 -79 12 -9 9 41 400 54 420 7 11 186 -10 208 -24 7 -4 13 -31 13 -59 1
-29 5 -65 9 -82 l7 -30 8 30 c5 17 19 54 32 83 20 45 26 52 45 47 47 -10 146
-25 243 -36 55 -6 105 -15 110 -21 6 -5 19 -34 31 -64 l20 -55 35 51 c33 50
35 51 77 47 50 -5 58 13 13 30 -32 12 -56 1 -93 -40 -15 -17 -18 -18 -18 -4 0
11 -5 14 -17 10 -10 -4 -14 -2 -10 4 13 21 -31 61 -75 67 -96 13 -163 24 -163
26 0 1 -18 3 -40 4 -22 2 -61 6 -87 8 -27 3 -48 1 -48 -4 0 -4 -7 -8 -15 -8
-8 0 -15 -4 -15 -10 0 -15 -27 -12 -33 4 -13 33 -64 51 -172 60 -11 0 -26 5
-33 9 -7 5 -18 2 -28 -7 -8 -9 -22 -20 -31 -25 -10 -5 -18 -24 -19 -47 -2 -22
-8 -72 -13 -113 -6 -41 -8 -78 -5 -83 3 -4 0 -8 -5 -8 -6 0 -11 -11 -11 -25 0
-28 -14 -32 -36 -10 -9 8 -11 15 -6 15 6 0 8 9 5 20 -3 11 -1 26 5 33 6 7 13
30 16 52 3 22 11 58 17 80 6 22 12 55 14 72 2 18 9 42 15 53 6 11 8 26 4 32
-4 6 -3 8 3 5 6 -4 10 12 12 40 1 26 5 49 10 53 4 3 7 16 5 30 -1 14 -3 28 -3
32 -3 22 -60 42 -139 49 -48 5 -107 13 -131 18 -39 8 -46 6 -72 -18 -28 -26
-28 -28 -31 -158 -2 -76 1 -129 6 -126 5 4 6 0 1 -8 -5 -7 -8 -27 -7 -44 1
-25 0 -27 -8 -10 -5 11 -9 37 -9 58 -1 20 -5 37 -9 37 -6 0 -30 111 -35 162
-1 9 -4 15 -7 13 -4 -2 -14 5 -23 16 -18 21 -71 26 -83 8 -4 -6 -19 -9 -36 -5
-16 3 -27 2 -23 -3 3 -5 -15 -9 -39 -8 -24 1 -44 4 -44 7 0 3 0 21 -1 40 -1
26 -4 31 -11 20 -6 -10 -9 -6 -8 15 1 35 -30 115 -44 115 -5 0 -8 6 -6 13 4
20 -12 55 -28 61 -8 3 -12 10 -9 16 3 5 2 10 -3 10 -5 0 -15 13 -22 30 -7 16
-17 28 -24 27 -6 -1 -10 4 -9 10 2 7 -8 20 -22 29 -14 9 -25 23 -25 32 0 8 -3
13 -6 9 -3 -3 -39 17 -79 43 -81 55 -88 69 -79 154 6 57 -1 76 -12 32z m916
-626 c52 -5 103 -10 113 -10 11 0 17 -8 17 -24 0 -32 -103 -466 -115 -486 -7
-11 -140 -2 -166 11 -14 7 -17 44 -23 258 -4 138 -4 256 -1 262 4 6 22 8 44 5
20 -4 79 -11 131 -16z m692 -940 c49 -14 94 -53 120 -104 19 -37 22 -63 26
-248 5 -235 3 -244 -57 -234 -19 3 -38 11 -42 18 -7 10 -13 10 -31 -2 -13 -8
-51 -17 -86 -20 -34 -3 -63 -9 -63 -15 -1 -5 -10 -22 -20 -36 -18 -26 -23 -27
-101 -25 -81 2 -83 2 -83 26 0 17 9 29 28 38 20 10 27 20 27 43 0 22 5 29 20
29 11 0 20 -7 20 -15 0 -8 7 -15 15 -15 19 0 19 0 -9 51 -58 104 -60 302 -6
409 45 88 141 128 242 100z m-1289 -247 c-6 -2 -8 -14 -6 -26 4 -25 -38 -84
-54 -74 -12 8 -5 57 8 57 5 0 9 7 9 15 0 8 5 15 10 15 6 0 10 7 10 16 0 8 5
12 10 9 6 -3 11 2 11 12 1 16 2 16 6 -2 3 -10 1 -21 -4 -22z m183 -402 c-5 -7
-12 -7 -25 1 -14 9 -16 14 -7 24 9 10 14 10 25 -1 7 -7 10 -18 7 -24z m1053
20 c19 -12 6 -41 -19 -41 -15 0 -20 7 -20 25 0 26 14 31 39 16z m61 -88 c0 -7
-7 -13 -15 -13 -8 0 -15 4 -15 9 0 5 -3 17 -6 26 -6 15 -4 15 15 4 11 -8 21
-19 21 -26z m-1240 -23 c11 0 1 -114 -11 -118 -14 -6 -11 -42 6 -59 18 -17 15
-49 -3 -46 -7 2 -12 -6 -12 -18 0 -11 5 -17 10 -14 11 7 14 -34 4 -59 -11 -28
-34 -18 -34 13 0 17 -4 33 -10 36 -14 9 -12 21 6 40 14 14 14 18 2 33 -14 17
-14 52 1 52 4 0 8 16 9 35 2 19 -2 35 -8 35 -16 0 -12 35 8 69 11 20 18 26 20
16 2 -8 7 -15 12 -15z m1232 -49 c2 -13 -3 -26 -9 -28 -9 -3 -13 7 -13 33 0
41 17 37 22 -5z"/>
<path d="M1964 2288 c-3 -4 8 -8 24 -8 26 0 29 -3 25 -27 -3 -16 -9 -37 -14
-48 -5 -11 -13 -40 -19 -65 -6 -25 -13 -54 -16 -65 -2 -11 -9 -40 -14 -65 -6
-25 -13 -57 -16 -72 -4 -16 -10 -28 -14 -28 -4 0 -7 -8 -6 -17 1 -22 -43 -30
-73 -14 -18 10 -19 23 -21 181 0 94 -5 180 -10 193 -6 14 -9 -54 -9 -190 l-1
-213 34 0 c18 0 47 -3 65 -6 36 -8 29 -24 71 176 18 85 39 174 46 198 8 23 14
49 14 56 0 15 -58 28 -66 14z"/>
<path d="M2523 1363 c-7 -2 -13 -9 -13 -14 0 -12 52 -8 61 5 9 12 54 0 74 -21
16 -16 17 -15 14 2 -6 27 -94 45 -136 28z"/>
<path d="M2454 1323 c-63 -66 -90 -203 -65 -325 22 -106 73 -152 167 -152 41
0 59 5 87 27 43 33 45 33 49 5 2 -17 11 -24 31 -26 l28 -3 -3 143 -3 143 -25
-1 c-14 0 -53 -1 -87 -2 l-63 -2 0 -45 0 -45 40 0 c46 0 51 -13 19 -54 -38
-49 -120 -26 -133 36 -12 58 -14 129 -5 162 26 92 127 105 153 19 6 -19 14
-23 51 -23 24 0 46 4 49 8 8 14 -18 89 -42 119 -27 34 -29 19 -2 -22 26 -40
25 -62 -3 -67 -33 -6 -47 1 -40 20 3 9 2 14 -2 9 -5 -4 -16 0 -26 9 -23 21
-97 24 -108 5 -5 -8 -14 -10 -21 -6 -9 6 -11 4 -5 -5 4 -7 2 -16 -5 -20 -7 -4
-15 -28 -17 -54 -4 -30 -9 -43 -17 -39 -6 3 -5 0 2 -8 6 -7 12 -35 12 -61 0
-50 17 -95 43 -116 8 -7 36 -13 62 -14 39 -2 50 1 65 22 32 43 31 68 -4 93
-17 12 -32 30 -34 39 -2 14 5 17 40 16 76 -1 85 -9 86 -75 0 -32 -4 -64 -10
-70 -7 -9 -7 -13 1 -13 6 0 11 -11 11 -25 0 -16 -6 -25 -15 -25 -8 0 -15 5
-15 10 0 18 -32 11 -64 -14 -44 -33 -90 -41 -118 -22 -12 9 -31 16 -41 16 -10
0 -21 9 -24 20 -3 11 -9 20 -13 20 -9 0 -28 53 -29 80 0 8 -2 56 -5 105 -2 55
0 98 7 110 6 11 12 25 13 32 4 23 49 73 61 69 15 -6 18 10 3 19 -5 3 -22 -7
-36 -22z"/>
<path d="M2554 1219 c-30 -11 -48 -70 -41 -136 6 -61 28 -93 64 -93 32 0 29
18 -4 22 -28 3 -28 4 -28 78 l0 75 38 3 c32 3 38 7 35 24 -4 25 -35 38 -64 27z"/>
<path d="M915 2730 c-31 -12 -69 -57 -55 -65 6 -4 22 5 36 20 22 24 31 27 70
22 26 -3 58 -15 80 -32 23 -17 39 -24 45 -18 6 6 -2 19 -23 34 -62 46 -108 58
-153 39z"/>
<path d="M325 2672 c-38 -23 -95 -88 -95 -107 0 -22 18 -18 30 6 19 34 43 60
72 75 31 16 94 19 103 4 9 -15 35 -12 35 3 0 15 -54 37 -91 37 -13 0 -38 -8
-54 -18z"/>
<path d="M911 2483 c-30 -37 -36 -70 -22 -122 17 -64 55 -101 102 -101 49 0
74 35 74 106 -2 110 -101 186 -154 117z m103 -72 c12 -26 16 -51 12 -73 -5
-28 -10 -33 -36 -34 -16 -1 -27 3 -24 7 2 4 -6 15 -20 24 -14 10 -23 22 -19
31 3 8 0 14 -5 14 -15 0 6 61 26 77 21 18 45 1 66 -46z"/>
<path d="M357 2444 c-88 -47 -69 -234 24 -242 30 -3 41 2 62 28 81 95 12 265
-86 214z m76 -73 c11 -46 1 -98 -23 -111 -24 -13 -31 -12 -53 4 -20 15 -37 83
-18 71 7 -4 11 3 11 19 0 61 68 75 83 17z"/>
<path d="M1402 2212 c-2 -7 0 -18 7 -25 6 -6 11 -24 11 -41 0 -41 14 -23 16
22 1 20 3 40 3 44 1 4 11 9 24 11 12 2 5 4 -17 3 -22 0 -41 -7 -44 -14z"/>
<path d="M644 2176 c-16 -7 -47 -32 -66 -56 -101 -117 -61 -332 74 -401 48
-25 95 -24 137 2 45 28 56 39 83 90 95 182 -63 436 -228 365z m140 -63 c20
-15 36 -34 36 -41 0 -7 4 -11 9 -7 12 7 34 -96 25 -118 -3 -9 -2 -17 4 -17 11
0 -12 -110 -25 -119 -4 -3 -13 -15 -19 -26 -6 -11 -31 -26 -55 -33 -46 -13
-114 -8 -104 9 4 5 0 9 -7 10 -17 1 -71 66 -73 87 0 10 -6 25 -11 35 -16 27
-6 115 19 169 38 84 130 108 201 51z"/>
<path d="M1367 2113 c-3 -43 -8 -87 -12 -99 -6 -18 -3 -20 24 -16 18 2 31 10
31 19 0 30 -23 158 -30 166 -4 5 -10 -27 -13 -70z"/>
<path d="M1085 2155 c-22 -8 -53 -15 -70 -15 -56 -1 -56 -4 -24 -155 17 -77
37 -174 46 -215 8 -41 24 -112 34 -158 11 -46 19 -92 19 -103 0 -24 8 -24 120
2 74 17 90 24 86 37 -4 14 -40 173 -49 215 -1 7 31 20 87 34 48 12 99 24 112
27 13 4 24 11 24 17 0 6 -7 9 -15 5 -8 -3 -52 -13 -98 -21 -128 -25 -131 -27
-122 -83 3 -26 8 -63 9 -82 1 -19 8 -45 15 -58 7 -12 9 -32 6 -43 -5 -16 -12
-19 -32 -14 -14 3 -22 2 -19 -3 7 -11 -66 -24 -87 -16 -13 5 -29 56 -32 104
-1 8 -4 22 -7 30 -6 13 -20 79 -22 105 -1 6 -5 19 -9 30 -19 55 -63 296 -54
302 5 3 4 9 -4 13 -13 8 43 20 111 23 l35 2 18 -80 c10 -44 20 -91 23 -104 3
-14 9 -20 14 -15 5 5 -1 56 -14 119 -25 123 -29 126 -101 100z"/>
<path d="M1617 2100 c-3 -12 1 -33 9 -48 8 -15 14 -43 14 -62 0 -19 5 -53 11
-75 16 -67 19 -78 30 -143 21 -116 5 -143 -92 -158 -36 -6 -39 -5 -39 18 0 29
-46 207 -56 216 -8 8 -1 -47 20 -148 27 -128 25 -122 46 -115 11 3 47 12 82
19 l63 13 7 54 c6 43 1 79 -21 174 -16 66 -37 155 -46 198 -10 42 -19 77 -20
77 -2 0 -5 -9 -8 -20z"/>
<path d="M1435 2093 c5 -51 19 -104 27 -109 10 -6 1 62 -11 81 -3 6 -4 18 -3
28 2 9 -1 17 -6 17 -5 0 -8 -8 -7 -17z"/>
<path d="M1419 1976 c-3 -3 -38 -10 -79 -17 -41 -6 -88 -17 -105 -24 -29 -13
-29 -13 -5 -14 14 -1 63 8 109 19 47 12 91 18 99 15 8 -3 12 0 10 7 -5 13 -22
21 -29 14z"/>
<path d="M2658 1973 c6 -2 12 -10 12 -16 0 -7 7 -25 15 -41 9 -17 31 -65 49
-107 34 -77 34 -78 21 -146 -7 -37 -10 -71 -7 -74 4 -4 30 -9 59 -12 l51 -6 7
62 c10 82 15 92 75 160 29 32 50 60 48 63 -6 5 -78 -72 -78 -84 0 -5 -11 -14
-24 -20 -20 -9 -25 -21 -31 -72 -4 -34 -9 -59 -12 -56 -3 3 -12 -2 -20 -10
-28 -27 -48 -13 -46 31 5 85 2 102 -21 150 -32 68 -40 88 -37 103 1 6 -2 12
-7 12 -5 0 -12 9 -15 20 -3 11 0 20 6 20 7 0 -1 7 -17 15 -15 8 -31 15 -35 14
-3 0 0 -3 7 -6z"/>
<path d="M2107 1816 c-9 -71 -16 -130 -14 -132 1 -1 23 -4 48 -8 55 -8 56 -7
66 123 8 101 -11 107 -22 6 -3 -36 -11 -63 -16 -60 -5 4 -9 2 -9 -4 0 -5 6
-11 13 -14 24 -8 -11 -35 -39 -29 -24 4 -26 8 -20 41 3 20 6 54 7 76 l2 40 7
-40 7 -40 1 40 c0 22 -3 60 -6 85 -7 41 -9 32 -25 -84z"/>
<path d="M2305 1907 c-4 -9 -4 -34 0 -55 7 -35 8 -36 18 -15 7 16 7 33 0 55
-8 27 -12 30 -18 15z"/>
<path d="M2376 1873 c-16 -37 -19 -136 -4 -127 4 3 1 -8 -7 -23 -8 -15 -15
-34 -15 -40 0 -7 -4 -13 -10 -13 -5 0 -10 6 -10 13 0 8 -4 7 -10 -3 -8 -12
-10 -12 -11 5 0 20 0 20 -9 0 -8 -18 -9 -18 -9 -2 -1 11 -6 15 -13 11 -7 -4
-8 -3 -4 5 8 13 -11 147 -25 171 -7 12 -8 11 -9 -4 0 -26 22 -200 26 -205 2
-2 23 -6 47 -8 l43 -5 36 84 c46 105 53 132 38 155 -10 16 -10 16 -5 -3 7 -25
-6 -64 -20 -61 -5 1 -13 -11 -16 -28 -4 -23 -8 -26 -13 -14 -4 9 1 42 12 73
21 63 14 75 -12 19z"/>
<path d="M2910 1903 c0 -5 -11 -21 -25 -37 -25 -29 -31 -46 -17 -46 4 0 19 20
34 45 15 25 23 45 18 45 -6 0 -10 -3 -10 -7z"/>
<path d="M85 1871 c7 -24 45 -72 45 -57 0 4 -12 24 -26 44 -19 28 -24 31 -19
13z"/>
<path d="M2556 1855 c-3 -9 -6 -33 -6 -53 -1 -47 -22 -128 -38 -144 -7 -7 -12
-8 -12 -4 0 5 -7 3 -15 -4 -12 -10 -15 -9 -15 4 0 11 -5 14 -12 10 -8 -5 -9
-2 -5 10 4 10 7 30 8 44 l1 27 8 -25 c8 -24 8 -23 9 8 1 17 -3 32 -8 32 -4 0
-5 19 0 43 12 60 10 67 -6 29 -13 -30 -40 -191 -33 -197 2 -1 26 -6 54 -10
l51 -7 6 34 c4 18 11 73 18 121 11 84 9 117 -5 82z"/>
<path d="M140 1796 c0 -13 54 -85 68 -90 9 -4 10 -1 2 12 -15 26 -70 87 -70
78z"/>
<path d="M1756 1781 c-2 -3 -7 -47 -10 -97 l-7 -92 78 -7 c43 -3 88 -9 99 -12
23 -5 23 -4 39 137 l7 55 -64 3 c-34 2 -80 7 -101 12 -20 4 -39 5 -41 1z m160
-48 c10 -11 13 -11 17 -1 3 7 6 3 6 -9 1 -13 -4 -22 -11 -20 -8 1 -10 -15 -9
-51 l3 -53 -64 6 c-89 9 -88 8 -88 62 1 46 20 90 33 76 4 -3 7 -2 7 4 0 16 93
4 106 -14z"/>
<path d="M1009 1597 c-19 -15 -128 -49 -211 -67 -36 -8 -84 -10 -137 -6 -55 5
-81 4 -81 -3 0 -6 6 -11 13 -12 6 0 21 -2 32 -5 53 -11 83 -11 122 -1 29 8 49
8 65 0 21 -10 51 -2 68 18 3 3 36 18 74 32 48 18 72 23 77 16 9 -16 21 5 13
25 -7 19 -14 20 -35 3z"/>
<path d="M759 1435 c-3 -2 -32 -5 -67 -7 -34 -1 -62 -6 -62 -11 0 -4 -5 -5
-10 -2 -19 12 -38 -14 -32 -43 l6 -27 6 25 6 25 178 3 c123 2 183 -1 192 -9
10 -8 14 -8 14 0 0 6 9 11 20 11 18 0 19 3 9 21 -9 17 -13 19 -20 8 -5 -8 -9
-11 -9 -7 0 4 -10 4 -22 -1 -14 -5 -33 -4 -48 2 -24 10 -154 20 -161 12z"/>
<path d="M149 1417 c-23 -10 -16 -12 55 -12 70 0 85 -3 112 -24 18 -12 38 -34
45 -47 7 -13 21 -24 32 -24 17 0 14 7 -19 43 -22 24 -55 51 -75 60 -41 19
-112 21 -150 4z"/>
<path d="M58 1378 c-8 -7 -21 -28 -28 -45 -7 -18 -15 -31 -19 -29 -9 6 -6 -92
4 -169 8 -62 24 -84 60 -85 18 0 17 2 -7 23 -36 31 -51 86 -46 169 5 58 10 75
37 108 31 39 31 53 -1 28z"/>
<path d="M150 1360 c0 -5 -8 -10 -18 -10 -24 0 -47 -25 -67 -73 -21 -50 -19
-100 5 -147 22 -42 53 -63 131 -86 62 -19 82 -49 49 -76 -40 -33 -100 -16
-100 27 0 24 -3 25 -55 25 l-56 0 7 -37 c9 -53 34 -94 75 -121 29 -20 44 -23
96 -20 102 6 153 62 153 166 0 100 -27 130 -161 177 -52 18 -70 49 -41 71 37
28 92 11 92 -28 0 -15 9 -18 50 -18 48 0 50 1 50 29 0 38 -38 92 -80 113 -37
19 -130 25 -130 8z m120 -21 c30 -11 76 -72 59 -78 -8 -2 -7 -6 2 -12 10 -6 4
-9 -17 -9 -23 0 -36 7 -49 26 -15 24 -21 26 -58 20 -50 -8 -88 -39 -69 -58 7
-7 12 -19 12 -27 0 -10 29 -28 79 -49 44 -18 86 -41 95 -51 21 -23 30 -79 22
-126 -8 -41 -56 -95 -86 -95 -11 0 -29 -5 -39 -12 -30 -18 -126 32 -140 74 -9
26 -8 35 4 47 10 10 15 11 15 3 0 -7 5 -12 10 -12 6 0 23 -11 38 -25 29 -27
55 -31 96 -15 71 27 46 102 -44 131 -98 31 -121 56 -128 135 -4 48 -1 57 27
91 46 56 101 69 171 42z"/>
<path d="M450 1365 c0 0 -3 -116 -6 -257 l-6 -258 56 0 56 0 0 258 0 257 -50
0 c-27 0 -50 0 -50 0z m82 -37 c4 -12 3 -82 -3 -264 -1 -39 1 -76 4 -81 6 -10
-11 -93 -22 -105 -3 -4 -13 -3 -21 2 -12 8 -16 49 -21 222 -3 117 -4 219 -1
226 2 6 17 12 32 12 15 0 30 -6 32 -12z"/>
<path d="M1020 1362 c-6 -2 -10 -28 -10 -58 l0 -54 69 0 c38 0 78 -3 88 -6 15
-6 15 -4 -2 9 -12 8 -41 17 -65 19 -50 3 -77 27 -62 54 5 9 12 15 15 15 4 -1
8 -1 10 0 17 5 227 4 242 -2 17 -7 17 -8 3 -8 -18 -1 -26 -21 -8 -21 5 0 3
-12 -5 -27 -8 -16 -27 -56 -43 -90 -17 -34 -33 -59 -36 -56 -3 4 -6 -6 -6 -21
0 -16 -4 -25 -10 -21 -6 4 -10 3 -9 -2 3 -18 -2 -32 -14 -45 -17 -16 -31 -68
-19 -68 12 0 172 336 172 360 0 18 -10 19 -150 22 -83 2 -155 2 -160 0z"/>
<path d="M630 1305 l0 -55 75 0 c43 0 75 4 75 10 0 10 -14 12 -82 13 -33 0
-37 3 -41 31 -3 17 -4 32 -3 33 1 1 40 5 86 8 46 3 86 8 89 10 2 3 -41 5 -97
5 l-102 0 0 -55z"/>
<path d="M840 1353 c0 -4 12 -9 26 -10 45 -2 58 -24 43 -72 -7 -22 -16 -41
-21 -41 -4 0 -8 -7 -8 -15 0 -8 -4 -15 -10 -15 -5 0 -9 -6 -7 -12 1 -7 -4 -12
-11 -10 -8 1 -11 -2 -7 -8 7 -12 -51 -141 -69 -152 -6 -4 -7 -8 -1 -8 6 0 3
-5 -5 -10 -10 -6 -11 -10 -2 -10 6 0 12 -7 12 -15 0 -18 43 -37 80 -34 65 4
71 1 68 -32 l-3 -32 -65 0 c-182 1 -221 5 -214 22 3 9 9 24 11 34 3 9 10 17
15 17 5 0 8 6 7 13 -3 20 52 128 62 121 6 -3 9 0 8 7 -3 21 13 79 21 79 7 0
30 53 30 67 0 35 -175 -309 -182 -358 l-3 -24 173 -3 172 -2 0 61 0 62 -85 -5
c-57 -3 -85 -1 -85 6 0 6 15 43 34 81 102 213 125 262 128 280 3 18 -3 20 -54
23 -32 2 -58 -1 -58 -5z"/>
<path d="M1402 1105 l-3 -255 149 0 148 0 -2 63 -1 62 -92 0 -91 -1 -2 181 c0
99 -1 186 -1 193 1 8 -16 12 -51 12 l-51 0 -3 -255z m86 71 c-2 -89 -8 -168
-12 -175 -6 -10 -5 -12 2 -7 7 4 14 -3 18 -19 6 -22 11 -25 48 -24 22 1 60 1
84 0 41 -1 42 -2 42 -35 0 -24 -5 -36 -17 -40 -25 -7 -212 0 -220 8 -4 4 -7
104 -8 224 l0 216 24 13 c14 6 29 9 34 6 5 -3 7 -76 5 -167z"/>
<path d="M1760 1105 l0 -255 56 0 c54 0 56 1 50 23 -3 12 -6 127 -6 255 l0
232 -50 0 -50 0 0 -255z m62 233 c28 5 31 -34 24 -245 -8 -200 -13 -224 -48
-215 -16 4 -18 17 -19 91 -1 47 -2 149 -3 226 0 77 0 143 2 148 2 4 9 4 15 0
7 -4 20 -6 29 -5z"/>
<path d="M1960 1115 c0 -135 0 -248 0 -252 0 -5 20 -8 45 -8 25 0 45 3 45 8 0
165 -3 238 -10 217 -4 -14 -8 -62 -9 -107 -1 -46 -4 -83 -8 -84 -5 0 -16 -2
-25 -4 -16 -3 -18 7 -19 103 0 59 -2 156 -4 216 -4 107 -3 108 23 132 l27 23
-32 1 -33 0 0 -245z"/>
<path d="M2030 1350 c0 -5 8 -14 18 -19 15 -9 15 -12 2 -22 -13 -9 -12 -10 3
-5 14 4 24 -8 47 -56 17 -34 30 -68 30 -75 0 -8 5 -11 10 -8 6 3 10 -3 10 -13
0 -11 7 -22 15 -26 22 -8 19 16 -8 55 -12 19 -42 67 -66 107 -39 65 -61 88
-61 62z"/>
<path d="M2212 1251 c-2 -68 1 -112 8 -116 11 -7 14 17 11 120 -2 67 13 118
26 87 4 -10 8 -10 18 -2 11 9 15 4 20 -27 10 -60 14 -62 12 -6 l-2 53 -45 0
-45 0 -3 -109z"/>
<path d="M971 1293 c0 -7 -26 -63 -57 -125 -74 -151 -77 -158 -59 -158 7 0 15
10 17 23 2 12 9 21 15 20 6 -1 14 15 18 37 4 22 11 42 16 46 5 3 16 22 25 42
11 28 17 33 24 22 15 -25 19 -7 10 50 -4 30 -8 50 -9 43z"/>
<path d="M2289 1153 c0 -54 0 -132 0 -173 1 -41 -2 -80 -6 -86 -28 -38 -72 -8
-113 79 -12 26 -40 67 -62 90 l-40 42 34 -62 c18 -35 51 -92 73 -128 l39 -65
48 0 48 0 0 200 c0 127 -4 200 -10 200 -6 0 -10 -40 -11 -97z"/>
<path d="M1149 1209 c-43 -71 -161 -330 -156 -343 5 -14 31 -16 177 -16 l170
0 0 60 0 61 -77 -3 c-49 -2 -78 -7 -80 -15 -3 -9 6 -12 29 -12 85 3 90 2 86
-33 l-3 -32 -75 0 c-163 2 -170 3 -171 22 0 15 -1 15 -8 -2 -4 -11 -10 -15
-14 -10 -3 6 11 46 33 90 82 168 111 235 108 246 -2 6 -11 0 -19 -13z"/>
<path d="M662 1213 c-57 -4 -63 -23 -6 -23 42 0 44 -15 4 -60 -16 -19 -29 -39
-30 -44 0 -5 -11 -19 -25 -32 -23 -22 -25 -29 -25 -122 0 -76 -4 -103 -15
-112 -21 -17 -132 -3 -145 18 -11 18 -7 22 -100 -87 -25 -28 -46 -43 -62 -43
-23 0 -23 -2 -21 -92 l2 -91 52 0 52 0 -2 83 c-1 53 2 89 10 98 17 21 175 20
183 -2 3 -9 6 -65 6 -125 0 -86 3 -109 14 -109 8 0 16 16 20 42 11 69 46 128
99 166 26 19 46 36 44 38 -2 2 -19 -1 -38 -6 -43 -13 -116 -13 -124 -1 -6 11
44 61 60 61 6 0 16 9 23 20 12 19 10 22 -20 24 -20 2 -28 18 -28 59 0 27 20
79 70 181 67 137 79 168 63 164 -5 -1 -32 -3 -61 -5z m-79 -428 c-25 -43 -68
-60 -79 -30 -11 29 3 43 44 41 24 0 38 -5 35 -11z m-138 -5 c7 -11 -10 -27
-37 -34 -25 -6 -28 -4 -28 18 0 21 5 25 30 24 17 -1 33 -4 35 -8z m-145 -172
c0 -66 -23 -60 -31 8 -7 57 -3 70 17 53 9 -7 14 -31 14 -61z"/>
<path d="M330 1177 c0 -1 14 -15 30 -30 l30 -29 0 29 c0 24 -4 28 -30 30 -17
1 -30 1 -30 0z"/>
<path d="M2946 1101 c-24 -24 -26 -32 -17 -50 7 -12 9 -21 6 -21 -2 0 3 -9 12
-20 36 -41 45 -16 12 30 l-22 28 27 27 c14 14 26 28 26 30 0 13 -19 2 -44 -24z"/>
<path d="M1015 1046 c-13 -31 -19 -36 -38 -31 -20 6 -20 6 -6 -6 9 -8 19 -21
22 -29 4 -12 6 -12 6 2 1 10 10 34 21 54 12 20 19 39 16 42 -3 3 -13 -12 -21
-32z"/>
<path d="M172 1009 c3 -8 18 -15 34 -17 33 -4 24 11 -15 23 -17 5 -22 4 -19
-6z"/>
<path d="M0 933 c0 -41 3 -54 10 -43 8 13 10 12 10 -4 0 -11 10 -30 21 -42 24
-26 19 -57 -6 -47 -11 4 -16 1 -15 -8 4 -27 0 -40 -10 -34 -6 4 -10 -42 -10
-129 0 -129 1 -136 20 -136 19 0 20 7 20 105 0 87 -3 105 -15 105 -25 0 -18
11 41 65 l57 52 -33 23 c-34 24 -69 89 -70 128 0 12 -4 22 -10 22 -6 0 -10
-26 -10 -57z"/>
<path d="M2992 924 c-1 -44 -6 -63 -17 -68 -8 -3 -15 -16 -15 -30 0 -14 -5
-28 -11 -32 -8 -4 -9 1 -5 17 7 24 7 24 -8 -1 -9 -14 -15 -37 -16 -52 0 -21 4
-25 19 -21 13 3 17 11 14 24 -3 11 1 21 11 25 9 3 16 16 16 28 0 12 5 27 11
33 6 6 8 38 6 74 l-3 64 -2 -61z"/>
<path d="M883 777 c-46 -42 -44 -56 7 -57 83 -1 176 -88 195 -182 12 -58 16
-68 31 -68 11 0 14 22 14 119 0 114 -1 119 -20 114 -11 -3 -20 -13 -20 -22 -1
-14 -2 -14 -14 1 -9 12 -16 14 -23 7 -11 -11 -33 -4 -33 10 0 4 12 12 28 19
26 11 19 10 -38 -3 -17 -4 -33 1 -52 17 -24 20 -26 25 -14 40 17 22 54 13 59
-16 3 -17 5 -16 6 6 1 25 4 27 34 24 17 -3 35 -5 40 -5 4 -1 7 -10 7 -21 0
-11 4 -20 8 -20 14 0 82 69 73 74 -4 3 -61 5 -126 4 l-118 0 -44 -41z"/>
<path d="M732 670 c-23 -11 -53 -32 -67 -47 -31 -35 -33 -51 -3 -23 13 11 33
23 45 26 13 4 21 10 18 14 -7 11 83 32 107 24 13 -4 18 -2 14 4 -3 6 0 13 6
15 7 3 -7 5 -32 6 -25 0 -64 -9 -88 -19z"/>
<path d="M877 674 c3 -7 20 -16 39 -20 19 -3 40 -14 47 -23 7 -9 21 -21 31
-27 28 -15 46 -77 52 -169 4 -65 1 -89 -16 -131 -24 -59 -84 -114 -124 -114
-14 0 -26 -4 -26 -10 0 -13 -87 -13 -95 0 -4 6 -15 8 -24 5 -28 -8 -117 81
-130 130 -13 47 -14 123 -2 182 11 57 -3 76 -20 27 -8 -22 -13 -74 -12 -117 1
-100 36 -177 101 -222 37 -25 55 -30 118 -33 177 -9 265 92 251 292 -6 95 -30
151 -83 194 -41 34 -116 59 -107 36z"/>
<path d="M1825 680 c-14 -6 2 -9 51 -9 80 -1 123 -18 154 -61 23 -32 26 -49 8
-51 -7 -1 -23 -3 -36 -4 -13 -1 -27 5 -32 15 -12 23 -77 39 -116 28 -39 -10
-60 -49 -41 -79 14 -23 47 -40 135 -65 82 -25 117 -59 116 -117 -1 -57 -12
-100 -30 -110 -8 -5 -22 -17 -32 -28 -22 -23 -164 -40 -176 -20 -4 6 -15 11
-25 11 -28 0 -80 53 -87 89 -6 30 -5 32 17 29 13 -1 29 -14 35 -27 l12 -24 4
24 c3 23 4 23 23 -8 12 -21 28 -33 42 -34 13 0 36 -1 53 -2 62 -2 93 70 49
112 -12 11 -39 23 -60 26 -21 4 -41 11 -45 16 -3 5 -14 9 -26 9 -29 0 -71 28
-90 60 -18 31 -18 112 0 118 7 2 10 8 7 13 -8 12 14 51 26 44 5 -4 9 -1 9 4 0
6 9 11 21 11 11 0 17 5 14 10 -11 18 -33 10 -69 -26 -39 -39 -52 -83 -41 -141
13 -73 68 -118 165 -137 89 -18 118 -47 80 -78 -43 -35 -130 -12 -130 33 0 17
-7 19 -65 19 -73 0 -79 -8 -51 -74 31 -75 90 -106 198 -106 91 0 145 24 176
79 31 55 30 134 -3 183 -25 37 -54 52 -167 83 -84 23 -98 58 -36 89 29 15 75
-5 88 -38 7 -19 15 -21 64 -21 30 1 58 4 62 7 12 13 -8 67 -34 94 -54 54 -157
80 -217 54z"/>
<path d="M2913 679 c-13 -5 -23 -15 -23 -23 0 -21 -57 -103 -76 -110 -14 -5
-15 1 -11 41 3 27 6 55 8 63 2 8 0 16 -6 18 -12 3 -30 -110 -22 -132 4 -10 18
-16 37 -16 37 0 38 -10 5 -113 -28 -88 -31 -107 -13 -89 6 6 22 42 34 79 13
37 28 67 34 66 5 -2 10 4 10 12 0 8 -5 15 -10 15 -6 0 -15 11 -21 24 -10 20
-8 31 10 60 12 20 28 35 34 33 6 -1 13 9 15 23 2 14 9 28 14 31 20 12 4 27
-19 18z"/>
<path d="M74 419 l1 -260 68 -3 67 -2 -1 90 c0 50 -4 100 -8 110 -7 18 -8 18
-14 -5 -4 -13 -7 -51 -7 -84 0 -79 -13 -94 -66 -81 l-23 6 0 222 c0 144 4 227
11 235 11 14 46 17 72 7 13 -5 16 -22 16 -86 0 -51 5 -84 13 -91 7 -7 39 -11
77 -11 87 2 90 3 90 14 0 6 -35 10 -85 10 l-85 0 0 95 0 95 -64 0 -63 0 1
-261z"/>
<path d="M377 643 c-8 -60 -3 -146 9 -150 7 -2 9 17 6 56 -7 92 1 111 44 111
21 0 33 -4 29 -10 -3 -5 -1 -10 4 -10 6 0 11 6 11 13 0 6 6 4 12 -7 7 -13 8
-49 2 -115 -4 -53 -9 -145 -10 -206 -1 -60 -3 -115 -3 -121 -1 -17 -51 -27
-67 -13 -10 8 -14 34 -14 85 0 97 -8 104 -111 104 -46 0 -79 -4 -79 -10 0 -6
34 -10 83 -10 l82 0 -3 -91 c-2 -50 -1 -96 1 -102 3 -8 27 -11 71 -9 l66 4 -2
256 -3 257 -62 3 -61 3 -5 -38z"/>
<path d="M1160 493 c0 -162 3 -194 19 -229 37 -80 96 -114 200 -114 112 0 185
52 211 151 6 22 10 116 10 209 l-2 171 -40 -5 c-49 -6 -63 -16 -21 -16 17 0
33 -6 36 -14 3 -7 4 -86 2 -174 -4 -160 -20 -242 -45 -227 -5 3 -10 -1 -10 -9
0 -8 -20 -27 -43 -41 -49 -28 -104 -32 -171 -13 -46 13 -106 69 -106 98 0 10
-4 22 -10 25 -5 3 -10 50 -10 103 0 53 -2 130 -5 169 -5 70 -4 73 19 79 13 3
37 4 52 2 l29 -3 -2 -160 c-2 -205 8 -232 95 -248 40 -8 76 13 99 56 12 24 15
64 15 194 -1 96 3 163 9 163 5 0 9 5 9 11 0 6 -8 9 -17 7 -16 -3 -19 -22 -23
-185 -4 -160 -7 -183 -24 -202 -12 -13 -31 -21 -52 -21 -85 0 -94 24 -94 240
l0 170 -65 0 -65 0 0 -187z"/>
<path d="M2178 507 c-1 -95 -2 -212 -2 -260 l-1 -88 190 0 190 0 3 61 3 61
-123 -2 -123 -3 -3 47 -3 47 105 0 106 0 0 55 0 55 -111 0 c-97 0 -110 2 -105
16 3 9 6 28 6 42 l0 27 120 -3 120 -4 0 61 0 61 -185 -1 -185 -1 -2 -171z
m330 143 c2 -5 10 -6 18 -3 17 6 20 -42 4 -52 -6 -4 -54 -8 -108 -9 -124 -4
-130 -7 -130 -60 0 -23 3 -48 7 -54 4 -6 45 -12 100 -14 l94 -3 2 -32 c3 -32
2 -33 -36 -33 -22 0 -39 5 -39 11 0 8 -4 8 -14 -1 -8 -6 -28 -10 -43 -9 -50 5
-73 -16 -73 -66 0 -67 14 -75 128 -75 53 0 102 -4 109 -8 6 -4 10 -19 10 -34
l-2 -28 -162 1 c-90 0 -165 5 -169 10 -5 8 -5 22 -2 84 0 11 -2 92 -5 180 -6
173 -3 202 20 207 34 7 288 -4 291 -12z"/>
<path d="M798 593 c-10 -2 -18 -9 -18 -15 0 -6 -3 -9 -6 -5 -19 19 -53 -56
-55 -123 l-2 -35 -7 40 c-6 35 -7 36 -8 10 -3 -56 35 -198 49 -189 5 3 9 1 9
-4 0 -5 11 -14 25 -20 66 -30 136 4 158 76 16 51 20 121 7 137 -4 6 -10 26
-14 46 -4 22 -16 43 -34 55 -46 34 -52 36 -52 20 0 -9 6 -16 13 -16 7 0 26
-14 42 -30 27 -28 29 -34 27 -110 -2 -117 -29 -160 -97 -160 -79 0 -116 70
-101 193 7 62 33 100 71 107 16 3 28 9 28 15 -2 12 -12 14 -35 8z"/>
<path d="M1865 541 c14 -14 49 -18 55 -6 3 6 -11 11 -30 13 -24 2 -32 0 -25
-7z"/>
<path d="M798 529 c-36 -21 -47 -146 -17 -201 12 -23 49 -24 49 -1 0 9 16 31
35 49 27 25 35 39 35 67 0 77 -48 118 -102 86z m48 -64 c2 -10 5 -30 9 -43 4
-18 1 -25 -14 -29 -12 -3 -18 -10 -15 -15 4 -6 -2 -8 -12 -6 -15 2 -19 12 -19
43 -1 58 44 101 51 50z"/>
<path d="M18 428 c-15 -31 -18 -65 -17 -207 l0 -170 31 35 c23 26 28 37 19 47
-6 8 -12 77 -13 173 l-3 159 -17 -37z"/>
<path d="M546 338 c-3 -13 -6 -60 -6 -105 0 -115 1 -113 -84 -113 -68 0 -73
-2 -88 -28 -9 -15 -28 -39 -42 -54 -31 -32 -32 -38 -8 -38 10 0 34 19 54 43
34 41 37 43 99 44 52 2 66 6 80 24 12 17 18 19 22 8 5 -13 11 32 8 59 -1 6 3
12 9 12 5 0 10 -4 10 -10 0 -5 6 -10 14 -10 8 0 16 -7 20 -15 3 -8 1 -15 -4
-15 -5 0 -7 -7 -4 -15 4 -8 -6 -31 -21 -50 -14 -20 -25 -43 -23 -53 3 -14 8
-12 34 13 17 17 41 47 53 68 l24 39 -34 28 c-38 31 -74 96 -84 153 -8 42 -20
48 -29 15z"/>
<path d="M1844 318 c-8 -12 -5 -14 34 -21 24 -5 32 -3 30 5 -6 16 -56 29 -64
16z"/>
<path d="M1114 273 c-4 -16 -16 -41 -28 -58 -12 -16 -44 -66 -71 -110 -27 -44
-53 -81 -57 -83 -16 -7 -8 -22 12 -22 11 0 20 3 20 8 0 4 11 20 25 36 14 16
25 37 25 48 0 10 4 18 8 18 11 0 55 60 55 75 0 6 9 11 19 11 10 0 18 -6 18
-13 0 -7 7 -13 15 -13 8 0 15 -5 15 -10 0 -6 11 -15 25 -20 14 -5 25 -16 25
-24 0 -10 6 -13 15 -10 20 8 19 1 -5 -46 -26 -51 -26 -68 1 -44 22 20 59 85
59 104 0 5 -7 10 -16 10 -18 0 -71 35 -97 65 -9 11 -23 39 -29 63 -14 49 -25
53 -34 15z"/>
<path d="M2592 213 c2 -88 3 -89 25 -85 20 4 21 7 11 20 -8 9 -13 42 -13 80 0
44 -4 67 -13 70 -10 3 -12 -16 -10 -85z"/>
<path d="M1665 179 c-7 -31 -15 -50 -36 -89 -12 -20 -39 -81 -39 -86 0 -2 15
-4 33 -3 17 0 26 3 20 6 -19 7 -16 28 12 69 14 20 25 48 25 61 0 14 4 22 10
18 6 -4 8 -15 5 -26 -6 -17 -3 -19 21 -13 15 4 25 3 21 -2 -3 -5 6 -10 20 -10
13 -1 32 -9 41 -18 11 -9 27 -13 40 -9 16 4 22 1 22 -11 0 -9 -7 -16 -15 -16
-16 0 -19 -9 -9 -34 9 -24 18 -20 39 22 10 20 25 44 32 53 12 15 7 17 -49 23
-78 9 -115 25 -155 65 l-31 33 -7 -33z"/>
<path d="M2860 175 c-14 -41 -7 -72 7 -35 20 50 24 70 14 70 -5 0 -15 -16 -21
-35z"/>
<path d="M1990 119 c-42 -17 -43 -18 -15 -18 28 0 74 23 64 33 -2 2 -24 -4
-49 -15z"/>
<path d="M2256 106 c3 -7 -4 -31 -15 -52 -27 -49 -26 -54 3 -54 19 0 22 4 18
25 -5 27 21 65 45 65 15 0 17 -16 3 -25 -5 -3 -10 -11 -10 -17 0 -6 10 -2 23
9 12 11 28 18 35 16 6 -3 12 0 12 6 0 12 29 15 54 5 9 -3 16 -12 16 -20 0 -8
5 -14 10 -14 6 0 10 11 10 25 0 14 5 25 11 25 7 0 9 -9 5 -22 -16 -56 -18 -78
-8 -78 6 0 14 17 18 38 4 22 17 46 33 59 l26 22 -147 1 c-122 0 -146 -2 -142
-14z"/>
<path d="M2746 24 c-21 -21 -20 -24 9 -24 18 0 25 5 25 20 0 24 -13 26 -34 4z"/>
</g>
</svg>
